<svg width="21" height="20" viewBox="0 0 21 20" fill="none" xmlns="http://www.w3.org/2000/svg">
<path d="M0.988281 10.0391C0.988281 10.4062 1.11719 10.7188 1.375 10.9766C1.63281 11.2266 1.94141 11.3516 2.30078 11.3516H9.48438V18.5469C9.48438 18.8984 9.61328 19.2031 9.87109 19.4609C10.1289 19.7188 10.4375 19.8477 10.7969 19.8477C11.1641 19.8477 11.4766 19.7188 11.7344 19.4609C11.9922 19.2031 12.1211 18.8984 12.1211 18.5469V11.3516H19.293C19.6523 11.3516 19.9609 11.2266 20.2188 10.9766C20.4766 10.7188 20.6055 10.4062 20.6055 10.0391C20.6055 9.67969 20.4766 9.37109 20.2188 9.11328C19.9609 8.84766 19.6523 8.71484 19.293 8.71484H12.1211V1.54297C12.1211 1.18359 11.9922 0.875 11.7344 0.617188C11.4766 0.359375 11.1641 0.230469 10.7969 0.230469C10.4375 0.230469 10.1289 0.359375 9.87109 0.617188C9.61328 0.875 9.48438 1.18359 9.48438 1.54297V8.71484H2.30078C1.94141 8.71484 1.63281 8.84766 1.375 9.11328C1.11719 9.37109 0.988281 9.67969 0.988281 10.0391Z" fill="#2AD4DB"/>
</svg>
